<svg id="date_1_" data-name="date (1)" xmlns="http://www.w3.org/2000/svg" width="20" height="20" viewBox="0 0 20 20">
  <path id="Path_98" data-name="Path 98" d="M0,0H20V20H0Z" fill="none"/>
  <path id="Path_99" data-name="Path 99" d="M16.333,3.667H15.5V2.833a.833.833,0,0,0-1.667,0v.833H7.167V2.833a.833.833,0,1,0-1.667,0v.833H4.667A1.659,1.659,0,0,0,3.008,5.333L3,17a1.666,1.666,0,0,0,1.667,1.667H16.333A1.672,1.672,0,0,0,18,17V5.333A1.672,1.672,0,0,0,16.333,3.667Zm0,12.5A.836.836,0,0,1,15.5,17H5.5a.836.836,0,0,1-.833-.833V7.833H16.333ZM6.333,9.5H8v1.667H6.333Zm3.333,0h1.667v1.667H9.667ZM13,9.5h1.667v1.667H13Z" transform="translate(-0.5 -0.333)" fill="#7e7e7e"/>
</svg>
