<svg xmlns="http://www.w3.org/2000/svg" xmlns:xlink="http://www.w3.org/1999/xlink" width="200.852" height="43.622" viewBox="0 0 200.852 43.622">
  <defs>
    <clipPath id="clip-path">
      <path id="Path_107" data-name="Path 107" d="M73,198h4.747v3.258H73Zm0,0" transform="translate(-73 -198)"/>
    </clipPath>
    <clipPath id="clip-path-2">
      <path id="Path_112" data-name="Path 112" d="M46.328,154.867H93.8v10.391H46.328Zm0,0" transform="translate(-46.328 -154.867)"/>
    </clipPath>
    <clipPath id="clip-path-3">
      <path id="Path_117" data-name="Path 117" d="M46.328,154.867H70.6v10.391H46.328Zm0,0" transform="translate(-46.328 -154.867)"/>
    </clipPath>
    <clipPath id="clip-path-4">
      <path id="Path_122" data-name="Path 122" d="M74,204h3.956v3.956H74Zm0,0" transform="translate(-74 -204)" fill="#b7b7b7"/>
    </clipPath>
    <clipPath id="clip-path-5">
      <path id="Path_121" data-name="Path 121" d="M73.745,206.96,65.6,198.327l8.632-8.144,8.144,8.632Zm0,0" transform="translate(-65.602 -190.184)" fill="#b7b7b7"/>
    </clipPath>
    <clipPath id="clip-path-7">
      <path id="Path_126" data-name="Path 126" d="M72,202h6.33v6.33H72Zm0,0" transform="translate(-72 -202)" fill="#b7b7b7"/>
    </clipPath>
    <clipPath id="clip-path-10">
      <path id="Path_130" data-name="Path 130" d="M71,195h8.7v9.494H71Zm0,0" transform="translate(-71 -195)"/>
    </clipPath>
    <clipPath id="clip-path-11">
      <path id="Path_129" data-name="Path 129" d="M73.745,206.96,65.6,198.327l8.632-8.144,8.144,8.632Zm0,0" transform="translate(-65.602 -190.184)"/>
    </clipPath>
    <clipPath id="clip-path-13">
      <path id="Path_134" data-name="Path 134" d="M76,195h4.747v9.494H76Zm0,0" transform="translate(-76 -195)"/>
    </clipPath>
  </defs>
  <g id="Tuteva_Logo_Final_" data-name="Tuteva Logo Final " transform="translate(-46.328 -154.867)">
    <g id="Group_162" data-name="Group 162" transform="translate(98.877 161.694)">
      <g id="Group_161" data-name="Group 161">
        <g id="Group_160" data-name="Group 160" transform="translate(0 0)">
          <path id="Path_100" data-name="Path 100" d="M29.352-47.754H3.079c-1.144,0-1.505.482-1.626,1.626C1.271-44.5.609-41.366.609-40.945c0,.664.964.785,1.505.241,1.99-1.929,6.089-5.362,8.5-5.362H12v13.617c0,4.219-.482,12.174-2.772,13.862-.6.482-.6,1.505.664,1.505H22.544c1.326,0,1.267-1.023.664-1.505-2.29-1.687-2.772-9.643-2.772-13.862V-46.066h1.385c2.411,0,6.509,3.434,8.5,5.362.6.544,1.508.423,1.508-.241,0-.42-.664-3.554-.844-5.183C30.861-47.272,30.5-47.754,29.352-47.754Zm0,0" transform="translate(-0.609 47.754)" fill="#524f50"/>
        </g>
      </g>
    </g>
    <g id="Group_165" data-name="Group 165" transform="translate(124.198 170.094)">
      <g id="Group_164" data-name="Group 164" transform="translate(0 0)">
        <g id="Group_163" data-name="Group 163" transform="translate(0 0)">
          <path id="Path_101" data-name="Path 101" d="M26.938-35.595c.121-.782.664-1.746-.6-1.505-2.228.482-4.7,4.4-10.484,4.4-.6,0-.844.723-.241,1.205a5.475,5.475,0,0,1,2.469,5.183v5.062c-.782,1.8-1.929,3.613-3.193,3.613-4.519,0-4.76-10.786-3.254-17.957.182-.782.723-1.746-.541-1.505-2.29.482-4.7,4.4-10.487,4.4-.6,0-.844.723-.241,1.205a5.475,5.475,0,0,1,2.469,5.183c0,8.917,4.16,11.448,9.584,11.448a7.074,7.074,0,0,0,5.9-3.5,5.141,5.141,0,0,0,4.942,3.5h5.545c.6,0,.723-.661.179-1.264C25.251-20.59,26.156-30.773,26.938-35.595Zm0,0" transform="translate(-0.016 37.137)" fill="#524f50"/>
        </g>
      </g>
    </g>
    <g id="Group_168" data-name="Group 168" transform="translate(154.375 165.181)">
      <g id="Group_167" data-name="Group 167" transform="translate(0 0)">
        <g id="Group_166" data-name="Group 166" transform="translate(0 0)">
          <path id="Path_102" data-name="Path 102" d="M14.823-35.806H12.054c.179-1.987.482-4.036.841-6.147a1.117,1.117,0,0,0-1.626-1.264c-2.831,1.023-4.1,7.411-9.884,7.411H1.023C.241-35.806,0-35.142,0-34.36s.241,1.446,1.023,1.446H2.349c.844,1.987.785,4.7.785,6.268,0,2.59.059,7.109-1.929,8.978-.6.541-.6,1.505.179,1.505H13.559c1.326,0,1.264-1.023.661-1.505-1.626-1.267-2.711-7.473-2.349-15.246h2.952c.785,0,1.026-.664,1.026-1.446S15.608-35.806,14.823-35.806Zm0,0" transform="translate(0 43.347)" fill="#524f50"/>
        </g>
      </g>
    </g>
    <g id="Group_171" data-name="Group 171" transform="translate(171.308 170.07)">
      <g id="Group_170" data-name="Group 170">
        <g id="Group_169" data-name="Group 169" transform="translate(0 0)">
          <path id="Path_103" data-name="Path 103" d="M21.452-21.8c-1.687,2.228-5.362,3.013-7.594,2.411a6.249,6.249,0,0,1-4.336-4.4,10.572,10.572,0,0,0,4.216.9c4.7,0,8.558-3.193,8.558-7.112,0-3.975-5.062-7.17-9.76-7.17C5.3-37.168,0-32.167,0-26.02S5.362-14.872,12.054-14.872A12.187,12.187,0,0,0,22.719-20.9C23.081-21.56,22.055-22.583,21.452-21.8ZM12.233-35.48c1.626,0,2.772,2.473,2.772,5.483,0,2.955-1.147,5.424-2.772,5.424-1.446,0-2.952-1.987-2.952-5.183C9.281-33.611,11.269-35.48,12.233-35.48Zm0,0" transform="translate(0 37.168)" fill="#524f50"/>
        </g>
      </g>
    </g>
    <g id="Group_174" data-name="Group 174" transform="translate(195.336 170.07)">
      <g id="Group_173" data-name="Group 173" transform="translate(0)">
        <g id="Group_172" data-name="Group 172" transform="translate(0 0)">
          <path id="Path_104" data-name="Path 104" d="M25.605-37.168H18.676a.727.727,0,0,0-.6,1.267c2.29,2.772-1.205,16.51-1.205,16.51-.3-.544-5.844-12.777-2.469-16.51a.756.756,0,0,0-.6-1.267H.84c-1.264,0-.964,1.026-.182,1.508,1.749,1.023,3.2,3.131,5.424,10.363l2.473,8.076c.482,1.626,1.205,2.349,3.072,2.349H15.6c1.326,0,1.867-1.023,2.228-2.228L22.051-30.78c.664-2.228,1.267-3.916,3.375-5.121C26.208-36.383,26.328-37.168,25.605-37.168Zm0,0" transform="translate(0.019 37.168)" fill="#524f50"/>
        </g>
      </g>
    </g>
    <g id="Group_177" data-name="Group 177" transform="translate(222.648 170.07)">
      <g id="Group_176" data-name="Group 176" transform="translate(0)">
        <g id="Group_175" data-name="Group 175" transform="translate(0 0)">
          <path id="Path_105" data-name="Path 105" d="M24.166-16.136c-2.111-1.567-2.473-2.893-2.473-5.121V-26.2c0-6.509-4.88-10.969-11.327-10.969-5.545,0-8.558,2.772-8.558,5.362,0,3.5,9.04,2.29,7.773-.661-.723-1.567-.723-3.013.182-3.013,2.17,0,3.492,3.978,3.492,7.473V-26.2a7.409,7.409,0,0,0-5.9-2.893A7.254,7.254,0,0,0,0-21.98a7.254,7.254,0,0,0,7.353,7.109,7.409,7.409,0,0,0,5.9-2.893,5.106,5.106,0,0,0,4.522,2.893h6.147C24.586-14.872,24.769-15.654,24.166-16.136ZM10-18.126c-1.629,0-2.955-1.746-2.955-3.854S8.376-25.838,10-25.838c1.687,0,3.01,1.746,3.01,3.857S11.692-18.126,10-18.126Zm0,0" transform="translate(0 37.168)" fill="#524f50"/>
        </g>
      </g>
    </g>
    <g id="Group_178" data-name="Group 178" transform="translate(67.431 188.994)" clip-path="url(#clip-path)">
      <path id="Path_106" data-name="Path 106" d="M77.449,198.979,75.7,201.288l-1.728-2.309a2.2,2.2,0,0,1,1.728-.834A2.257,2.257,0,0,1,77.449,198.979Zm0,0" transform="translate(-73.202 -198.03)" fill="#5c5b5b"/>
    </g>
    <path id="Path_108" data-name="Path 108" d="M72.017,193.353a2.33,2.33,0,0,0-1.057.723l-10.468-14.1v-.083l.083-.723a4.142,4.142,0,0,1,3.146-3.088h.028c.111-.028.223-.028.334-.056h.083c.139,0,.25-.028.389-.028A4.092,4.092,0,0,1,68.621,180c0,.028.028.056.028.083Zm0,0" transform="translate(-2.957 -4.412)" fill="#f9b406"/>
    <path id="Path_109" data-name="Path 109" d="M79.312,180.009l-3.452,13.324a2.343,2.343,0,0,0-.751-.111,3.853,3.853,0,0,0-.559.056l-3.4-13.268a4.081,4.081,0,0,1,8.159,0Zm0,0" transform="translate(-5.183 -4.419)" fill="#f9b406"/>
    <path id="Path_110" data-name="Path 110" d="M89.1,179.981l-10.718,14.13a2.281,2.281,0,0,0-.89-.668l3.452-13.324a.1.1,0,0,0,.028-.083,4.094,4.094,0,0,1,4.064-4.005,1.836,1.836,0,0,1,.389.028c.056,0,.083.028.139.028.083,0,.167.028.25.028.056,0,.111.028.167.028.083.028.142.028.226.056.056.028.111.028.167.056s.139.056.195.083.111.028.139.056c.056.028.139.056.195.083s.083.056.139.083.139.083.195.111c.028.028.083.056.111.083a.845.845,0,0,0,.195.139l.083.083c.056.056.139.111.195.167l.083.083c.056.083.139.139.195.223l.056.056a1.529,1.529,0,0,1,.195.25l.028.028a1.871,1.871,0,0,1,.195.306l.167.334c.028.056.028.083.056.139s.056.139.083.195c.028.083.056.195.083.278a.1.1,0,0,0,.028.083,1.4,1.4,0,0,1,.056.334v.028l.028.195A1.365,1.365,0,0,1,89.1,179.981Zm0,0" transform="translate(-6.506 -4.419)" fill="#f9b406"/>
    <g id="Group_179" data-name="Group 179" transform="translate(46.328 154.867)" clip-path="url(#clip-path-2)">
      <path id="Path_111" data-name="Path 111" d="M93.769,162.377l-8.8,2.837c-.389-1.224-1.975-2.114-4.954-2.754a48.95,48.95,0,0,0-9.94-.89,48.95,48.95,0,0,0-9.94.89c-3.007.64-4.6,1.53-4.957,2.782l-8.8-2.782,23.637-7.594Zm0,0" transform="translate(-46.34 -154.867)" fill="#5c5b5b"/>
    </g>
    <path id="Path_113" data-name="Path 113" d="M86.233,167.2v7.343c-1.45-1.53-7.6-2.42-13.5-2.42s-12.057.89-13.5,2.42V167.2c0-1.363,5.427-2.809,13.5-2.809C80.83,164.422,86.233,165.869,86.233,167.2Zm0,0" transform="translate(-2.693 -1.989)" fill="#5c5b5b"/>
    <path id="Path_114" data-name="Path 114" d="M51.093,167.459a.808.808,0,0,1-1.616,0,.809.809,0,0,1,1.616,0Zm0,0" transform="translate(-0.657 -2.466)" fill="#f9b406"/>
    <path id="Path_115" data-name="Path 115" d="M51.2,177.77H49.336l.921-8.067Zm0,0" transform="translate(-0.628 -3.098)" fill="#f9b406"/>
    <g id="Group_180" data-name="Group 180" transform="translate(46.328 154.867)" clip-path="url(#clip-path-3)">
      <path id="Path_116" data-name="Path 116" d="M69.881,154.9l-23.5,7.566,8.768,2.782c.389-1.252,1.978-2.142,4.957-2.782a49.2,49.2,0,0,1,9.773-.89Zm0,0" transform="translate(-46.34 -154.875)" fill="#524f50"/>
    </g>
    <path id="Path_118" data-name="Path 118" d="M72.57,164.43c-7.965.028-13.308,1.446-13.308,2.782v7.343c1.419-1.5,7.461-2.42,13.308-2.42Zm0,0" transform="translate(-2.7 -1.997)" fill="#524f50"/>
    <g id="Group_183" data-name="Group 183" transform="translate(68.222 193.741)" clip-path="url(#clip-path-4)">
      <g id="Group_182" data-name="Group 182" transform="translate(-6.645 -10.932)" clip-path="url(#clip-path-5)">
        <g id="Group_181" data-name="Group 181" clip-path="url(#clip-path-5)">
          <path id="Path_119" data-name="Path 119" d="M75.576,207.288a1.578,1.578,0,1,0-1.533-1.626A1.574,1.574,0,0,0,75.576,207.288Zm.087-2.711a1.133,1.133,0,1,1-1.165,1.1A1.132,1.132,0,0,1,75.662,204.578Zm0,0" transform="translate(-67.364 -193.096)" fill="#b7b7b7"/>
        </g>
      </g>
    </g>
    <g id="Group_186" data-name="Group 186" transform="translate(66.64 192.159)" clip-path="url(#clip-path-7)">
      <g id="Group_185" data-name="Group 185" transform="translate(-5.062 -9.349)" clip-path="url(#clip-path-5)">
        <g id="Group_184" data-name="Group 184" clip-path="url(#clip-path-5)">
          <path id="Path_123" data-name="Path 123" d="M75.262,208.1a2.679,2.679,0,1,0-2.6-2.757A2.674,2.674,0,0,0,75.262,208.1Zm.133-4.911a2.234,2.234,0,1,1-2.3,2.167A2.23,2.23,0,0,1,75.4,203.187Zm0,0" transform="translate(-67.075 -192.805)" fill="#b7b7b7"/>
        </g>
      </g>
    </g>
    <g id="Group_189" data-name="Group 189" transform="translate(65.849 186.621)" clip-path="url(#clip-path-10)">
      <g id="Group_188" data-name="Group 188" transform="translate(-4.271 -3.811)" clip-path="url(#clip-path-11)">
        <g id="Group_187" data-name="Group 187" clip-path="url(#clip-path-11)">
          <path id="Path_127" data-name="Path 127" d="M74.887,203.814l-3.672-8.431a.17.17,0,0,1,.241-.213l3.693,2.092a.14.14,0,0,0,.155.006l3.808-1.876a.168.168,0,0,1,.226.226l-4.154,8.206A.161.161,0,0,1,74.887,203.814Zm0,0" transform="translate(-66.771 -191.22)" fill="#524f50"/>
        </g>
      </g>
    </g>
    <g id="Group_192" data-name="Group 192" transform="translate(69.805 186.621)" clip-path="url(#clip-path-13)">
      <g id="Group_191" data-name="Group 191" transform="translate(-8.227 -3.811)" clip-path="url(#clip-path-11)">
        <g id="Group_190" data-name="Group 190" clip-path="url(#clip-path-11)">
          <path id="Path_131" data-name="Path 131" d="M80.123,195.451l-3.808,1.876c-.025.006-.056.022-.077.012l-.195,6.623a.171.171,0,0,0,.161-.09l4.145-8.2A.166.166,0,0,0,80.123,195.451Zm0,0" transform="translate(-67.782 -191.279)" fill="#5c5b5b"/>
        </g>
      </g>
    </g>
  </g>
</svg>
