<svg xmlns="http://www.w3.org/2000/svg" width="122.542" height="122" viewBox="0 0 122.542 122">
  <g id="Group_468" data-name="Group 468" transform="translate(-54.864 -375)">
    <rect id="Rectangle_173" data-name="Rectangle 173" width="122" height="122" rx="9" transform="translate(55.135 375)" fill="#f96d06"/>
    <g id="istockphoto-956222314-612x612" transform="translate(-98.3 814.48)">
      <path id="Path_182" data-name="Path 182" d="M172.585-426.4a25.612,25.612,0,0,0-10.1,5.934,28.886,28.886,0,0,0-9.262,23.335c.561,9.3,3.408,14.715,14.314,27.265,4.41,5.092,15.837,16.88,18.484,19.085l2,1.684,2.165-2.125c1.884-1.844,2.085-2.245,1.724-2.927-1.042-2,.561-7.939,3.408-12.63,1.564-2.606,2.446-2.646,2.606-.08.16,2.366.6,2.847,2.125,2.406,1.2-.361,1.844-.722,5.012-2.846,2-1.323,3.889-1.965,4.972-1.684,1.363.361.8,1.4-1.724,3.087a13.941,13.941,0,0,0-2.165,1.684,14.969,14.969,0,0,0,2.807-.842c2.606-.962,4.691-1.283,5.212-.762.561.6-.481,1.483-4.009,3.408-4.45,2.365-4.41,3.248,0,1.724,2.847-.962,5.092-1.243,5.092-.642,0,.521-2,2.205-4.29,3.649-1.965,1.2-3.328,2.446-2.767,2.446a20.885,20.885,0,0,0,2.646-1c2.646-1.122,4.41-1.283,4.41-.481,0,1.163-2.646,2.726-8.019,4.691-4.972,1.844-12.951,6.215-13.793,7.538-.24.4,7.177,7.257,12.189,11.347a13.979,13.979,0,0,0,15.035,1.724c3.127-1.644,15.877-13.071,27.465-24.618,13.752-13.672,21.451-22.854,24.458-29.068a28.614,28.614,0,0,0,3.087-11.828c.2-3.729-.4-9.623-1.043-9.623-.561,0-9.021,5.974-11.307,7.979-2.887,2.566-3.929,4.691-5.533,11.467-.682,2.847-1.764,7.458-2.446,10.184-1.283,5.493-1.724,6.295-2.686,5.052-.481-.682-.561-1.884-.321-7.618.281-7.9.08-8.74-2.205-8.941-1.684-.12-3.408.922-10.705,6.415-5.774,4.41-11.427,7.538-13.592,7.538-2.726,0-1.684-1.4,5.413-7.1,7.217-5.813,8.741-7.177,6.455-5.854-6.255,3.689-16.519,8.941-18.965,9.743-2,.641-2.566.12-1.724-1.484.722-1.483,4.932-4.691,11.066-8.54,6.936-4.37,8.821-5.653,8.821-6.054,0-.882-2.045-.08-11.106,4.531-7.458,3.769-9.823,4.811-10.184,4.45-1.2-1.2,1.844-4.09,12.469-12.028,5.373-4.05,7.177-5.733,5.333-5.052-.4.12-3.087,1.644-6.014,3.408-6.255,3.729-9.422,5.252-10.625,5.052-3.849-.561,2.887-5.773,27.425-21.09,5.653-3.568,11.587-7.3,13.191-8.34l2.927-1.845-1.2-.641a20.756,20.756,0,0,0-8.42-1.684c-5.974,0-13.311,2.887-20.007,7.9a98,98,0,0,0-13.993,13.632,13.6,13.6,0,0,1-2.245,2.526,30.782,30.782,0,0,1-3.047-3.448c-7.818-9.743-18.724-17.682-27.184-19.807A26.608,26.608,0,0,0,172.585-426.4Z" transform="translate(0 0)" fill="#fff"/>
    </g>
  </g>
</svg>
