<svg xmlns="http://www.w3.org/2000/svg" width="45.461" height="36" viewBox="0 0 45.461 36">
  <g id="istockphoto-956222314-612x612" transform="translate(-153.165 427)">
    <path id="Path_182" data-name="Path 182" d="M160.369-426.777a9.5,9.5,0,0,0-3.748,2.2,10.716,10.716,0,0,0-3.436,8.657c.208,3.451,1.264,5.459,5.31,10.115,1.636,1.889,5.875,6.262,6.857,7.08l.744.625.8-.788c.7-.684.773-.833.64-1.086-.387-.744.208-2.945,1.264-4.685.58-.967.907-.982.967-.03.06.878.223,1.056.788.892a6.515,6.515,0,0,0,1.859-1.056,2.768,2.768,0,0,1,1.844-.625c.506.134.3.521-.64,1.145a5.172,5.172,0,0,0-.8.625,5.552,5.552,0,0,0,1.041-.312c.967-.357,1.74-.476,1.934-.283.208.223-.178.55-1.487,1.264-1.651.878-1.636,1.2,0,.64,1.056-.357,1.889-.461,1.889-.238,0,.193-.744.818-1.592,1.354-.729.446-1.235.907-1.026.907a7.747,7.747,0,0,0,.982-.372c.982-.416,1.636-.476,1.636-.178,0,.431-.982,1.011-2.975,1.74-1.844.684-4.8,2.305-5.117,2.8a35.889,35.889,0,0,0,4.522,4.209,5.186,5.186,0,0,0,5.578.64c1.16-.61,5.89-4.849,10.189-9.133,5.1-5.072,7.958-8.478,9.073-10.784a10.615,10.615,0,0,0,1.145-4.388c.074-1.383-.149-3.57-.387-3.57a36.131,36.131,0,0,0-4.195,2.96c-1.071.952-1.458,1.74-2.053,4.254-.253,1.056-.654,2.767-.907,3.778-.476,2.038-.64,2.335-1,1.874-.179-.253-.208-.7-.119-2.826.1-2.93.03-3.243-.818-3.317-.625-.045-1.264.342-3.971,2.38-2.142,1.636-4.239,2.8-5.042,2.8-1.011,0-.625-.521,2.008-2.633,2.677-2.157,3.243-2.662,2.395-2.172a66.166,66.166,0,0,1-7.036,3.615c-.744.238-.952.045-.64-.55.268-.55,1.83-1.74,4.105-3.168,2.573-1.621,3.272-2.1,3.272-2.246,0-.327-.759-.03-4.12,1.681-2.767,1.4-3.644,1.785-3.778,1.651-.446-.446.684-1.517,4.626-4.462,1.993-1.5,2.662-2.127,1.978-1.874-.149.045-1.145.61-2.231,1.264-2.32,1.383-3.5,1.949-3.942,1.874-1.428-.208,1.071-2.142,10.174-7.824,2.1-1.324,4.3-2.707,4.894-3.094l1.086-.684-.446-.238a7.7,7.7,0,0,0-3.124-.625,13.223,13.223,0,0,0-7.422,2.93,36.358,36.358,0,0,0-5.191,5.057,5.045,5.045,0,0,1-.833.937,11.418,11.418,0,0,1-1.13-1.279c-2.9-3.614-6.946-6.56-10.085-7.348A9.871,9.871,0,0,0,160.369-426.777Z" transform="translate(0 0)" fill="#f96d06"/>
  </g>
</svg>
