<svg xmlns="http://www.w3.org/2000/svg" width="390" height="158.295" viewBox="0 0 390 158.295">
  <g id="undraw_growing_re_olpi" transform="translate(0)">
    <path id="Path_259" data-name="Path 259" d="M224.547,478.267l-.614-.717c5.2-4.454,11.666-10,14.088-17.325,2.387-7.223.591-15.943-4.686-22.757-4.491-5.8-11.426-10.366-20.054-13.207-1.7-.56-3.469-1.058-5.178-1.539-4.131-1.163-8.4-2.367-12.185-4.566-5.21-3.029-9.942-8.978-8.77-15.441a11.263,11.263,0,0,1,8.1-8.738l.251.91a10.321,10.321,0,0,0-7.423,8c-1.09,6.006,3.391,11.586,8.316,14.45,3.679,2.139,7.892,3.325,11.966,4.473,1.719.484,3.5.985,5.217,1.552,8.808,2.9,15.9,7.577,20.505,13.525,5.467,7.059,7.32,16.115,4.836,23.632C236.413,468.1,229.834,473.737,224.547,478.267Z" transform="translate(-186.968 -341.345)" fill="#06f9ae"/>
    <ellipse id="Ellipse_75" data-name="Ellipse 75" cx="8.262" cy="4.013" rx="8.262" ry="4.013" transform="matrix(0.977, -0.211, 0.211, 0.977, 5.409, 50.134)" fill="#06f9ae"/>
    <ellipse id="Ellipse_76" data-name="Ellipse 76" cx="8.262" cy="4.013" rx="8.262" ry="4.013" transform="matrix(0.977, -0.211, 0.211, 0.977, 17.453, 74.581)" fill="#06f9ae"/>
    <ellipse id="Ellipse_77" data-name="Ellipse 77" cx="8.262" cy="4.013" rx="8.262" ry="4.013" transform="matrix(0.977, -0.211, 0.211, 0.977, 3.584, 81.925)" fill="#06f9ae"/>
    <rect id="Rectangle_144" data-name="Rectangle 144" width="0.944" height="2.833" transform="translate(128.523 84.133)" fill="#e5e5e5"/>
    <path id="Path_260" data-name="Path 260" d="M460.138,533.8h-.944v-6.036h.944Zm0-12.071h-.944V515.7h.944Zm0-12.071h-.944v-6.035h.944Zm0-12.071h-.944v-6.036h.944Zm0-12.071h-.944v-6.036h.944Z" transform="translate(-330.671 -386.481)" fill="#7e7e7e"/>
    <rect id="Rectangle_145" data-name="Rectangle 145" width="0.944" height="2.833" transform="translate(128.523 153.357)" fill="#e5e5e5"/>
    <rect id="Rectangle_146" data-name="Rectangle 146" width="0.944" height="2.833" transform="translate(231.917 84.133)" fill="#e5e5e5"/>
    <path id="Path_261" data-name="Path 261" d="M679.138,533.8h-.944v-6.036h.944Zm0-12.071h-.944V515.7h.944Zm0-12.071h-.944v-6.035h.944Zm0-12.071h-.944v-6.036h.944Zm0-12.071h-.944v-6.036h.944Z" transform="translate(-446.277 -386.481)" fill="#7e7e7e"/>
    <rect id="Rectangle_147" data-name="Rectangle 147" width="0.944" height="2.833" transform="translate(231.917 153.357)" fill="#e5e5e5"/>
    <rect id="Rectangle_148" data-name="Rectangle 148" width="0.944" height="2.833" transform="translate(284.072 28.718)" fill="#e5e5e5"/>
    <path id="Path_262" data-name="Path 262" d="M789.608,471.815h-.944v-5.8h.944Zm0-11.6h-.944v-5.8h.944Zm0-11.6h-.944v-5.8h.944Zm0-11.6h-.944v-5.8h.944Zm0-11.6h-.944v-5.8h.944Zm0-11.6h-.944v-5.8h.944Zm0-11.6h-.944v-5.8h.944Zm0-11.6h-.944v-5.8h.944Zm0-11.6h-.944v-5.8h.944Zm0-11.6h-.944v-5.8h.944Z" transform="translate(-504.592 -324.258)" fill="#7e7e7e"/>
    <rect id="Rectangle_149" data-name="Rectangle 149" width="0.944" height="2.833" transform="translate(284.072 153.357)" fill="#e5e5e5"/>
    <rect id="Rectangle_150" data-name="Rectangle 150" width="0.944" height="2.833" transform="translate(335.706 6.056)" fill="#e5e5e5"/>
    <path id="Path_263" data-name="Path 263" d="M898.976,446.474h-.944V440.7h.944Zm0-11.557h-.944v-5.779h.944Zm0-11.557h-.944V417.58h.944Zm0-11.557h-.944v-5.779h.944Zm0-11.557h-.944v-5.779h.944Zm0-11.557h-.944v-5.779h.944Zm0-11.557h-.944V371.35h.944Zm0-11.557h-.944v-5.779h.944Zm0-11.557h-.944v-5.779h.944Zm0-11.557h-.944v-5.779h.944Zm0-11.557h-.944v-5.779h.944Zm0-11.557h-.944v-5.779h.944Z" transform="translate(-562.325 -298.895)" fill="#7e7e7e"/>
    <rect id="Rectangle_151" data-name="Rectangle 151" width="0.944" height="2.833" transform="translate(335.706 153.357)" fill="#e5e5e5"/>
    <rect id="Rectangle_152" data-name="Rectangle 152" width="0.944" height="2.833" transform="translate(180.456 46.186)" fill="#e5e5e5"/>
    <path id="Path_264" data-name="Path 264" d="M570.138,491.31h-.944v-5.491h.944Zm0-10.983h-.944v-5.491h.944Zm0-10.983h-.944v-5.491h.944Zm0-10.983h-.944V452.87h.944Zm0-10.983h-.944v-5.491h.944Zm0-10.983h-.944V430.9h.944Zm0-10.983h-.944v-5.491h.944Zm0-10.983h-.944v-5.491h.944Zm0-10.983h-.944v-5.491h.944Z" transform="translate(-388.738 -343.444)" fill="#7e7e7e"/>
    <rect id="Rectangle_153" data-name="Rectangle 153" width="0.944" height="2.833" transform="translate(180.456 153.357)" fill="#e5e5e5"/>
    <path id="Path_265" data-name="Path 265" d="M660.345,446.4h-312.6a.978.978,0,0,1-.978-.978V295.588a.978.978,0,1,1,1.957,0V444.439H660.345a.978.978,0,1,1,0,1.957Z" transform="translate(-271.323 -288.89)" fill="#3f3d56"/>
    <path id="Path_266" data-name="Path 266" d="M376.393,91.7,324.419,52.774l-51.263,38.4L271.983,89.6l52.436-39.276,51.726,38.743,51.4-56.25.206-.084L479.6,11.848l.731,1.815L428.691,34.471Z" transform="translate(-143.575 -6.254)" fill="#3f3d56"/>
    <circle id="Ellipse_78" data-name="Ellipse 78" cx="5.87" cy="5.87" r="5.87" transform="translate(123.125 78.264)" fill="#f9b406"/>
    <circle id="Ellipse_79" data-name="Ellipse 79" cx="5.87" cy="5.87" r="5.87" transform="translate(174.975 40.11)" fill="#f9b406"/>
    <circle id="Ellipse_80" data-name="Ellipse 80" cx="5.87" cy="5.87" r="5.87" transform="translate(226.824 78.264)" fill="#f96d06"/>
    <circle id="Ellipse_81" data-name="Ellipse 81" cx="5.87" cy="5.87" r="5.87" transform="translate(225.408 99.037)" fill="#f9b406"/>
    <circle id="Ellipse_82" data-name="Ellipse 82" cx="5.87" cy="5.87" r="5.87" transform="translate(278.674 21.522)" fill="#f9b406"/>
    <circle id="Ellipse_83" data-name="Ellipse 83" cx="5.87" cy="5.87" r="5.87" transform="translate(330.524 0)" fill="#f9b406"/>
    <ellipse id="Ellipse_84" data-name="Ellipse 84" cx="10.166" cy="3.192" rx="10.166" ry="3.192" transform="matrix(0.357, -0.934, 0.934, 0.357, 65.202, 122.084)" fill="#2f2e41"/>
    <circle id="Ellipse_85" data-name="Ellipse 85" cx="20.333" cy="20.333" r="20.333" transform="translate(32.687 108.748)" fill="#222"/>
    <rect id="Rectangle_154" data-name="Rectangle 154" width="6.177" height="11.067" transform="translate(43.754 145.038)" fill="#2f2e41"/>
    <rect id="Rectangle_155" data-name="Rectangle 155" width="6.177" height="11.067" transform="translate(56.108 145.038)" fill="#2f2e41"/>
    <ellipse id="Ellipse_86" data-name="Ellipse 86" cx="5.148" cy="1.93" rx="5.148" ry="1.93" transform="translate(43.754 154.304)" fill="#2f2e41"/>
    <ellipse id="Ellipse_87" data-name="Ellipse 87" cx="5.148" cy="1.93" rx="5.148" ry="1.93" transform="translate(56.108 154.046)" fill="#2f2e41"/>
    <circle id="Ellipse_88" data-name="Ellipse 88" cx="6.949" cy="6.949" r="6.949" transform="translate(46.585 116.984)" fill="#fff"/>
    <circle id="Ellipse_89" data-name="Ellipse 89" cx="2.316" cy="2.316" r="2.316" transform="translate(51.218 121.617)" fill="#3f3d56"/>
    <path id="Path_267" data-name="Path 267" d="M257.157,496.848c-1.642-7.353,3.606-14.782,11.722-16.594s16.026,2.679,17.667,10.032-3.737,10.064-11.852,11.877S258.8,504.2,257.157,496.848Z" transform="translate(-223.861 -386.676)" fill="#f96d06"/>
    <ellipse id="Ellipse_90" data-name="Ellipse 90" cx="3.192" cy="10.166" rx="3.192" ry="10.166" transform="translate(19.565 118.173) rotate(-64.626)" fill="#2f2e41"/>
    <path id="Path_268" data-name="Path 268" d="M278.115,568.681c0,1.99,5.124,5.92,10.81,5.92s11.017-5.6,11.017-7.593-5.331.386-11.017.386S278.115,566.691,278.115,568.681Z" transform="translate(-235.083 -432.265)" fill="#fff"/>
    <circle id="Ellipse_91" data-name="Ellipse 91" cx="20.333" cy="20.333" r="20.333" transform="translate(186.186 105.512)" fill="#222"/>
    <rect id="Rectangle_156" data-name="Rectangle 156" width="6.177" height="11.067" transform="translate(197.254 141.802)" fill="#2f2e41"/>
    <rect id="Rectangle_157" data-name="Rectangle 157" width="6.177" height="11.067" transform="translate(209.608 141.802)" fill="#2f2e41"/>
    <ellipse id="Ellipse_92" data-name="Ellipse 92" cx="1.93" cy="5.148" rx="1.93" ry="5.148" transform="translate(196.444 154.053) rotate(-65.664)" fill="#2f2e41"/>
    <ellipse id="Ellipse_93" data-name="Ellipse 93" cx="1.93" cy="5.148" rx="1.93" ry="5.148" transform="translate(208.337 153.176) rotate(-64.102)" fill="#2f2e41"/>
    <path id="Path_269" data-name="Path 269" d="M582.286,489.994c-1.642-7.353,3.606-14.782,11.722-16.594s16.026,2.679,17.668,10.032-3.737,10.064-11.853,11.877S583.928,497.347,582.286,489.994Z" transform="translate(-395.491 -383.058)" fill="#f9b406"/>
    <ellipse id="Ellipse_94" data-name="Ellipse 94" cx="11.28" cy="3.541" rx="11.28" ry="3.541" transform="translate(215.446 119.932) rotate(-45.022)" fill="#2f2e41"/>
    <ellipse id="Ellipse_95" data-name="Ellipse 95" cx="11.28" cy="3.541" rx="11.28" ry="3.541" transform="translate(180.091 143.337) rotate(-75.136)" fill="#2f2e41"/>
  </g>
</svg>
