<svg id="undraw_graduation_re_gthn" xmlns="http://www.w3.org/2000/svg" width="390" height="146.19" viewBox="0 0 390 146.19">
  <path id="Path_438" data-name="Path 438" d="M216.809,542.286a8.456,8.456,0,0,0,8.166-1.438c2.86-2.4,3.757-6.354,4.486-10.016L231.619,520l-4.518,3.111c-3.249,2.237-6.572,4.546-8.821,7.787s-3.231,7.664-1.424,11.171" transform="translate(-205.618 -413.243)" fill="#06f9ae"/>
  <path id="Path_439" data-name="Path 439" d="M218.266,566.125a54.334,54.334,0,0,1-.754-12.527,19.7,19.7,0,0,1,3.8-10.329,17.183,17.183,0,0,1,4.409-4c.441-.278.847.42.408.7a16.336,16.336,0,0,0-6.462,7.8,26.186,26.186,0,0,0-1.39,11.28c.146,2.3.458,4.582.77,6.863a.418.418,0,0,1-.282.5.406.406,0,0,1-.5-.282Z" transform="translate(-206.378 -423.215)" fill="#a2a2a2"/>
  <path id="Path_442" data-name="Path 442" d="M227.734,574.082a6.225,6.225,0,0,0,5.424,2.8c2.746-.13,5.035-2.046,7.1-3.866l6.094-5.381-4.033-.193c-2.9-.139-5.876-.269-8.639.626s-5.311,3.047-5.816,5.907" transform="translate(-211.752 -437.819)" fill="#06f9ae"/>
  <path id="Path_443" data-name="Path 443" d="M215.823,586.637c2.738-4.844,5.913-10.228,11.587-11.948a12.93,12.93,0,0,1,4.873-.5c.517.045.388.842-.128.8a12.012,12.012,0,0,0-7.778,2.058,20.215,20.215,0,0,0-5.346,5.769c-.885,1.348-1.678,2.753-2.471,4.157C216.307,587.415,215.566,587.091,215.823,586.637Z" transform="translate(-205.541 -441.346)" fill="#a2a2a2"/>
  <path id="Path_438-2" data-name="Path 438" d="M737.2,520.048a11.644,11.644,0,0,0,11.244-1.981c3.938-3.306,5.173-8.75,6.178-13.793l2.972-14.915-6.222,4.284c-4.474,3.081-9.05,6.261-12.147,10.723s-4.449,10.554-1.961,15.383" transform="translate(-475.585 -397.337)" fill="#06f9ae"/>
  <path id="Path_439-2" data-name="Path 439" d="M739.208,552.876c-.783-5.705-1.589-11.484-1.038-17.25A27.133,27.133,0,0,1,743.4,521.4a23.661,23.661,0,0,1,6.071-5.5c.607-.383,1.166.579.561.96a22.5,22.5,0,0,0-8.9,10.736c-1.937,4.927-2.248,10.3-1.915,15.533.2,3.165.63,6.31,1.061,9.451a.576.576,0,0,1-.389.684.56.56,0,0,1-.684-.389Z" transform="translate(-476.631 -411.068)" fill="#a2a2a2"/>
  <path id="Path_442-2" data-name="Path 442" d="M752.246,563.832a8.572,8.572,0,0,0,7.469,3.856c3.782-.179,6.934-2.818,9.77-5.323l8.393-7.41-5.554-.266c-3.994-.191-8.092-.371-11.9.862s-7.313,4.2-8.009,8.134" transform="translate(-484.033 -431.18)" fill="#06f9ae"/>
  <path id="Path_443-2" data-name="Path 443" d="M735.843,581.122c3.77-6.671,8.143-14.084,15.956-16.454a17.805,17.805,0,0,1,6.711-.693c.713.062.535,1.16-.177,1.1a16.542,16.542,0,0,0-10.71,2.833,27.839,27.839,0,0,0-7.361,7.944c-1.219,1.856-2.311,3.792-3.4,5.724C736.51,582.193,735.49,581.747,735.843,581.122Z" transform="translate(-475.48 -436.036)" fill="#a2a2a2"/>
  <path id="Path_270" data-name="Path 270" d="M658.672,340.925a1.767,1.767,0,0,1-.985-2.136.851.851,0,0,0,.038-.2h0a.886.886,0,0,0-1.592-.587h0a.847.847,0,0,0-.1.174,1.767,1.767,0,0,1-2.136.985.848.848,0,0,0-.2-.038h0a.886.886,0,0,0-.587,1.592h0a.848.848,0,0,0,.174.1,1.767,1.767,0,0,1,.985,2.136.848.848,0,0,0-.038.2h0a.886.886,0,0,0,1.592.587h0a.846.846,0,0,0,.1-.174,1.767,1.767,0,0,1,2.136-.985.849.849,0,0,0,.2.038h0a.886.886,0,0,0,.587-1.592h0A.85.85,0,0,0,658.672,340.925Z" transform="translate(-432.391 -318.584)" fill="#06b8f9" style="isolation: isolate"/>
  <path id="Path_271" data-name="Path 271" d="M728.672,503.925a1.767,1.767,0,0,1-.985-2.136.845.845,0,0,0,.038-.2h0a.886.886,0,0,0-1.592-.587h0a.852.852,0,0,0-.1.174,1.767,1.767,0,0,1-2.136.985.847.847,0,0,0-.2-.038h0a.886.886,0,0,0-.587,1.592h0a.849.849,0,0,0,.174.1,1.767,1.767,0,0,1,.985,2.136.854.854,0,0,0-.038.2h0a.886.886,0,0,0,1.592.587h0a.845.845,0,0,0,.1-.174,1.767,1.767,0,0,1,2.136-.985.85.85,0,0,0,.2.038h0a.886.886,0,0,0,.587-1.592h0a.847.847,0,0,0-.174-.1Z" transform="translate(-468.728 -403.2)" fill="#f1f1f1" style="isolation: isolate"/>
  <path id="Path_272" data-name="Path 272" d="M361.672,408.925a1.767,1.767,0,0,1-.985-2.136.847.847,0,0,0,.038-.2h0a.886.886,0,0,0-1.592-.587h0a.847.847,0,0,0-.1.174,1.767,1.767,0,0,1-2.136.985.848.848,0,0,0-.2-.038h0a.886.886,0,0,0-.587,1.592h0a.848.848,0,0,0,.174.1,1.767,1.767,0,0,1,.985,2.136.85.85,0,0,0-.038.2h0a.886.886,0,0,0,1.592.587h0a.85.85,0,0,0,.1-.174,1.767,1.767,0,0,1,2.136-.985.849.849,0,0,0,.2.038h0a.886.886,0,0,0,.587-1.592h0a.85.85,0,0,0-.174-.1Z" transform="translate(-278.214 -353.884)" fill="#e606f9" style="isolation: isolate"/>
  <circle id="Ellipse_96" data-name="Ellipse 96" cx="2.885" cy="2.885" r="2.885" transform="translate(154.198 21.159)" fill="#e606f9" style="isolation: isolate"/>
  <circle id="Ellipse_97" data-name="Ellipse 97" cx="2.885" cy="2.885" r="2.885" transform="translate(308.083 13.465)" fill="#f96d06"/>
  <circle id="Ellipse_98" data-name="Ellipse 98" cx="2.885" cy="2.885" r="2.885" transform="translate(83.989)" fill="#06b8f9"/>
  <circle id="Ellipse_99" data-name="Ellipse 99" cx="20.711" cy="20.711" r="20.711" transform="translate(55.068 95.483)" fill="#222"/>
  <rect id="Rectangle_158" data-name="Rectangle 158" width="6.292" height="11.273" transform="translate(66.341 132.448)" fill="#2f2e41"/>
  <rect id="Rectangle_159" data-name="Rectangle 159" width="6.292" height="11.273" transform="translate(78.924 132.448)" fill="#2f2e41"/>
  <ellipse id="Ellipse_100" data-name="Ellipse 100" cx="5.243" cy="1.966" rx="5.243" ry="1.966" transform="translate(66.341 141.885)" fill="#2f2e41"/>
  <ellipse id="Ellipse_101" data-name="Ellipse 101" cx="5.243" cy="1.966" rx="5.243" ry="1.966" transform="translate(78.924 141.623)" fill="#2f2e41"/>
  <ellipse id="Ellipse_102" data-name="Ellipse 102" cx="11.49" cy="3.607" rx="11.49" ry="3.607" transform="translate(84.871 110.171) rotate(-45.022)" fill="#2f2e41"/>
  <ellipse id="Ellipse_103" data-name="Ellipse 103" cx="3.607" cy="11.49" rx="3.607" ry="11.49" transform="translate(40.29 100.46) rotate(-44.978)" fill="#2f2e41"/>
  <circle id="Ellipse_104" data-name="Ellipse 104" cx="7.078" cy="7.078" r="7.078" transform="translate(67.829 106.181)" fill="#fff"/>
  <circle id="Ellipse_105" data-name="Ellipse 105" cx="2.359" cy="2.359" r="2.359" transform="translate(72.547 110.899)" fill="#3f3d56"/>
  <path id="Path_273" data-name="Path 273" d="M352.1,558.152a4.6,4.6,0,1,1-9.058,1.649h0l0-.009c-.453-2.5,1.481-3.387,3.983-3.84S351.649,555.65,352.1,558.152Z" transform="translate(-271.576 -431.802)" fill="#fff"/>
  <path id="Path_274" data-name="Path 274" d="M392.412,584.823a1.76,1.76,0,0,0-1.758,1.758v3.673a1.76,1.76,0,0,0,1.758,1.758H420.7a1.76,1.76,0,0,0,1.758-1.758v-3.673a1.76,1.76,0,0,0-1.758-1.758Z" transform="translate(-296.326 -446.894)" fill="#06b8f9"/>
  <path id="Path_275" data-name="Path 275" d="M423.213,579.355a.763.763,0,0,0-1.042.279l-1.051,1.821-1.03-2.036a.762.762,0,1,0-1.361.688l.8,1.585h-.294V589.1h3.921v-7.407h-.414l.748-1.3a.762.762,0,0,0-.279-1.042Z" transform="translate(-310.857 -443.871)" fill="#f96d06"/>
  <path id="Path_276" data-name="Path 276" d="M338.348,497.943a36.59,36.59,0,0,1-10.851-1.658,1.216,1.216,0,0,1-.843-1.153V486.7a1.2,1.2,0,0,1,1.2-1.2h21.159a1.2,1.2,0,0,1,1.2,1.2v8.425a1.205,1.205,0,0,1-.855,1.154A38.079,38.079,0,0,1,338.348,497.943Z" transform="translate(-263.103 -395.334)" fill="#f9b406"/>
  <path id="Path_277" data-name="Path 277" d="M350.236,486.962v1.409l-11.45,4.015a.969.969,0,0,1-.659-.01l-10.974-4.121v-1.294a.965.965,0,0,1,.962-.962h21.159A.965.965,0,0,1,350.236,486.962Z" transform="translate(-263.362 -395.593)" opacity="0.2"/>
  <path id="Path_278" data-name="Path 278" d="M331.677,480.952a1.2,1.2,0,0,1-.423-.076l-16.4-6.158a1.2,1.2,0,0,1,.033-2.263l15.43-5.278a1.214,1.214,0,0,1,.769,0l17.221,5.74a1.2,1.2,0,0,1,.017,2.275l-16.251,5.7a1.2,1.2,0,0,1-.4.067Z" transform="translate(-256.574 -385.788)" fill="#f9b406"/>
  <path id="Path_279" data-name="Path 279" d="M124.635,189.473h-.481V182.5h14.667v.481H124.635Z" transform="translate(-64.45 -94.738)" fill="#3f3d56"/>
  <circle id="Ellipse_106" data-name="Ellipse 106" cx="0.962" cy="0.962" r="0.962" transform="translate(58.983 94.254)" fill="#3f3d56"/>
  <circle id="Ellipse_107" data-name="Ellipse 107" cx="20.711" cy="20.711" r="20.711" transform="translate(174.809 95.483)" fill="#222"/>
  <rect id="Rectangle_160" data-name="Rectangle 160" width="6.292" height="11.273" transform="translate(186.082 132.448)" fill="#2f2e41"/>
  <rect id="Rectangle_161" data-name="Rectangle 161" width="6.292" height="11.273" transform="translate(198.665 132.448)" fill="#2f2e41"/>
  <ellipse id="Ellipse_108" data-name="Ellipse 108" cx="5.243" cy="1.966" rx="5.243" ry="1.966" transform="translate(186.082 141.885)" fill="#2f2e41"/>
  <ellipse id="Ellipse_109" data-name="Ellipse 109" cx="5.243" cy="1.966" rx="5.243" ry="1.966" transform="translate(198.665 141.623)" fill="#2f2e41"/>
  <ellipse id="Ellipse_110" data-name="Ellipse 110" cx="11.49" cy="3.607" rx="11.49" ry="3.607" transform="translate(204.612 110.171) rotate(-45.022)" fill="#2f2e41"/>
  <ellipse id="Ellipse_111" data-name="Ellipse 111" cx="11.49" cy="3.607" rx="11.49" ry="3.607" transform="translate(164.554 131.69) rotate(-55.225)" fill="#2f2e41"/>
  <circle id="Ellipse_112" data-name="Ellipse 112" cx="7.078" cy="7.078" r="7.078" transform="translate(187.57 106.181)" fill="#fff"/>
  <circle id="Ellipse_113" data-name="Ellipse 113" cx="2.359" cy="2.359" r="2.359" transform="translate(194.693 108.495)" fill="#3f3d56"/>
  <path id="Path_280" data-name="Path 280" d="M601.893,558.152c.694,2.5-1.835,4.9-5.649,5.353s-7.469-1.2-8.164-3.7h0l0-.009c-.691-2.5,2.259-3.387,6.074-3.84S601.2,555.65,601.893,558.152Z" transform="translate(-398.758 -431.802)" fill="#fff"/>
  <path id="Path_281" data-name="Path 281" d="M569.679,497.425a36.588,36.588,0,0,1-10.686,2.51,1.216,1.216,0,0,1-1.212-.755l-3.145-7.821a1.2,1.2,0,0,1,.667-1.564l11.979-4.817,7.652-3.077a1.2,1.2,0,0,1,1.564.667l3.143,7.817a1.205,1.205,0,0,1-.363,1.39,38.079,38.079,0,0,1-9.6,5.651Z" transform="translate(-381.406 -393.42)" fill="#f9b406"/>
  <path id="Path_282" data-name="Path 282" d="M576.535,482.917l.526,1.307-9.125,8a.969.969,0,0,1-.615.237l-11.719.27-.483-1.2a.965.965,0,0,1,.534-1.251l19.632-7.894a.965.965,0,0,1,1.251.534Z" transform="translate(-381.666 -393.68)" opacity="0.2"/>
  <path id="Path_283" data-name="Path 283" d="M559.276,485.269a1.2,1.2,0,0,1-.421.087l-17.512.4a1.2,1.2,0,0,1-.813-2.112L552.877,473a1.214,1.214,0,0,1,.712-.29l18.119-1.1a1.2,1.2,0,0,1,.865,2.1L559.62,485.058a1.2,1.2,0,0,1-.344.211Z" transform="translate(-373.912 -388.12)" fill="#f9b406"/>
  <path id="Path_284" data-name="Path 284" d="M353.056,200.07l-.446.179-2.6-6.469,13.608-5.472.179.446-13.162,5.293Z" transform="translate(-181.694 -97.753)" fill="#3f3d56"/>
  <circle id="Ellipse_114" data-name="Ellipse 114" cx="0.962" cy="0.962" r="0.962" transform="translate(170.357 101.891)" fill="#3f3d56"/>
  <path id="Path_285" data-name="Path 285" d="M755.729,420.285a36.59,36.59,0,0,1-8.335-7.143,1.216,1.216,0,0,1-.106-1.424l4.456-7.156a1.2,1.2,0,0,1,1.656-.385l17.962,11.183a1.2,1.2,0,0,1,.385,1.656l-4.453,7.152a1.205,1.205,0,0,1-1.336.527,38.08,38.08,0,0,1-10.228-4.411Z" transform="translate(-481.365 -353.023)" fill="#f9b406"/>
  <path id="Path_286" data-name="Path 286" d="M776.031,417.149l-.745,1.2L763.444,415.7a.969.969,0,0,1-.554-.356l-7.137-9.3.684-1.1a.965.965,0,0,1,1.325-.308l17.962,11.183a.965.965,0,0,1,.308,1.325Z" transform="translate(-485.853 -353.284)" opacity="0.2"/>
  <path id="Path_287" data-name="Path 287" d="M760.846,407.172a1.2,1.2,0,0,1-.318-.288l-10.667-13.895a1.2,1.2,0,0,1,1.225-1.9l15.888,3.674a1.215,1.215,0,0,1,.655.4l11.585,13.975a1.2,1.2,0,0,1-1.188,1.941l-16.807-3.754A1.2,1.2,0,0,1,760.846,407.172Z" transform="translate(-482.666 -346.306)" fill="#f9b406"/>
  <path id="Path_288" data-name="Path 288" d="M552.166,102.752l-.408-.254,3.686-5.919,12.451,7.752-.254.408L555.6,97.24Z" transform="translate(-286.424 -50.135)" fill="#3f3d56"/>
  <circle id="Ellipse_115" data-name="Ellipse 115" cx="0.962" cy="0.962" r="0.962" transform="translate(264.322 51.936)" fill="#3f3d56"/>
  <circle id="Ellipse_116" data-name="Ellipse 116" cx="20.711" cy="20.711" r="20.711" transform="translate(303.758 71.92)" fill="#222"/>
  <rect id="Rectangle_162" data-name="Rectangle 162" width="6.292" height="11.273" transform="matrix(0.853, -0.521, 0.521, 0.853, 333.458, 106.652)" fill="#2f2e41"/>
  <rect id="Rectangle_163" data-name="Rectangle 163" width="6.292" height="11.273" transform="matrix(0.853, -0.521, 0.521, 0.853, 322.72, 113.214)" fill="#2f2e41"/>
  <ellipse id="Ellipse_117" data-name="Ellipse 117" cx="5.243" cy="1.966" rx="5.243" ry="1.966" transform="matrix(0.853, -0.521, 0.521, 0.853, 334.8, 116.892)" fill="#2f2e41"/>
  <ellipse id="Ellipse_118" data-name="Ellipse 118" cx="5.243" cy="1.966" rx="5.243" ry="1.966" transform="matrix(0.853, -0.521, 0.521, 0.853, 323.926, 123.231)" fill="#2f2e41"/>
  <ellipse id="Ellipse_119" data-name="Ellipse 119" cx="3.607" cy="11.49" rx="3.607" ry="11.49" transform="translate(294.029 75.454) rotate(-44.978)" fill="#2f2e41"/>
  <ellipse id="Ellipse_120" data-name="Ellipse 120" cx="3.607" cy="11.49" rx="3.607" ry="11.49" transform="translate(336.4 93.368) rotate(-34.775)" fill="#2f2e41"/>
  <circle id="Ellipse_121" data-name="Ellipse 121" cx="7.078" cy="7.078" r="7.078" transform="translate(311.048 79.732)" fill="#fff"/>
  <circle id="Ellipse_122" data-name="Ellipse 122" cx="2.359" cy="2.359" r="2.359" transform="translate(313.362 82.046)" fill="#3f3d56"/>
  <path id="Path_289" data-name="Path 289" d="M836.6,501.575c-1.342,2.2.446,5.174,3.994,6.645s7.513.88,8.855-1.319h0l0-.008c1.339-2.2-1.262-3.847-4.811-5.316S837.942,499.374,836.6,501.575Z" transform="translate(-527.592 -402.958)" fill="#fff"/>
  <path id="Path_290" data-name="Path 290" d="M854.461,425.439c1.849-7.448,10.012-11.83,18.233-9.789s13.385,9.733,11.536,17.181-7.985,7.472-16.205,5.43S852.611,432.887,854.461,425.439Z" transform="translate(-536.942 -358.814)" fill="#f96d06"/>
  <path id="Path_291" data-name="Path 291" d="M584.019,600.962H194.981a.481.481,0,0,1,0-.962H584.019a.481.481,0,0,1,0,.962Z" transform="translate(-194.5 -454.772)" fill="#524f50"/>
</svg>
