<svg xmlns="http://www.w3.org/2000/svg" width="390" height="146.731" viewBox="0 0 390 146.731">
  <g id="Group_440" data-name="Group 440" transform="translate(-20 -341.993)">
    <path id="Path_312" data-name="Path 312" d="M166.388,351.031H6.213A6.22,6.22,0,0,1,0,344.818V325.54H172.6v19.278A6.219,6.219,0,0,1,166.388,351.031Z" transform="translate(128.7 110.585)" fill="#e6e6e6"/>
    <rect id="Rectangle_178" data-name="Rectangle 178" width="40.847" height="29.176" transform="translate(194.884 458.391)" fill="#e6e6e6"/>
    <rect id="Rectangle_179" data-name="Rectangle 179" width="45.761" height="3.685" transform="translate(192.427 483.882)" fill="#e6e6e6"/>
    <path id="Path_313" data-name="Path 313" d="M172.447,102.27H0V4.263A4.268,4.268,0,0,1,4.263,0h163.92a4.268,4.268,0,0,1,4.263,4.263V102.27Z" transform="translate(128.7 341.993)" fill="#3f3d56"/>
    <rect id="Rectangle_180" data-name="Rectangle 180" width="164.308" height="92.443" transform="translate(132.692 346.446)" fill="#fff"/>
    <path id="Path_329" data-name="Path 329" d="M36.121,504.079a.882.882,0,0,0,.885.885H425.236a.885.885,0,0,0,0-1.769H37.006A.882.882,0,0,0,36.121,504.079Z" transform="translate(-16.121 -16.239)" fill="#3f3d56"/>
    <g id="Group_439" data-name="Group 439" transform="translate(18.916)">
      <g id="Group_436" data-name="Group 436" transform="translate(211.696 384.809)">
        <path id="Path_324" data-name="Path 324" d="M306.537,169.183l-3.783-1.792a27.785,27.785,0,0,1,3.6,8.239,27.763,27.763,0,0,1,5.1-7.407l-4,1.029c2.464-12.075,11.731-20.744,22.343-20.744l.15-.436C318.868,148.072,309.053,156.62,306.537,169.183Z" transform="translate(-298.207 -148.072)" fill="#3f3d56"/>
        <path id="Path_325" data-name="Path 325" d="M312.772,275.669h-23.9a1.839,1.839,0,0,1,0-3.678h23.9a1.839,1.839,0,0,1,0,3.678Z" transform="translate(-287.03 -236.16)" fill="#f9b406"/>
        <path id="Path_326" data-name="Path 326" d="M422.772,275.669h-23.9a1.839,1.839,0,0,1,0-3.678h23.9a1.839,1.839,0,0,1,0,3.678Z" transform="translate(-365.223 -236.16)" fill="#e6e6e6"/>
      </g>
      <g id="Group_437" data-name="Group 437" transform="translate(218.328 372.172)">
        <path id="Path_327" data-name="Path 327" d="M377.385,106.494H354.149a1.062,1.062,0,1,1,0-2.125h23.236a1.062,1.062,0,0,1,0,2.125Z" transform="translate(-340.618 -104.37)" fill="#3f3d56"/>
        <path id="Path_328" data-name="Path 328" d="M359.2,145.692H311.029a1.062,1.062,0,1,1,0-2.125H359.2a1.062,1.062,0,0,1,0,2.125Z" transform="translate(-309.966 -132.233)" fill="#3f3d56"/>
      </g>
      <path id="Path_330" data-name="Path 330" d="M122.819,160.826c-.035,0-.071,0-.106,0a17.007,17.007,0,0,1-13.539-8.546,1.69,1.69,0,0,1,.173-1.927l7.923-9.44a1.726,1.726,0,0,1,1.331-.6c.35.008,1.18.1,1.341.736.952,3.778,4.971,8.22,9.8,8.809a1.379,1.379,0,0,1,1.052,1.169,1.667,1.667,0,0,1-.334,1.481l-6.347,7.708a1.678,1.678,0,0,1-1.3.616Zm-4.249-20.139a1.329,1.329,0,0,0-1.01.467l-7.923,9.44a1.309,1.309,0,0,0-.135,1.492,16.625,16.625,0,0,0,13.235,8.357,1.3,1.3,0,0,0,1.087-.475l6.347-7.708a1.291,1.291,0,0,0,.259-1.147c-.1-.4-.344-.838-.73-.885-4.993-.608-9.145-5.194-10.127-9.093-.08-.316-.559-.439-.98-.449h-.023Z" transform="translate(136.83 255.344)" fill="#3f3d56"/>
      <path id="Path_331" data-name="Path 331" d="M126.82,169.705l5.712-5.824c.39-.4-.221-1.011-.612-.612l-5.712,5.824c-.39.4.221,1.011.612.612Z" transform="translate(123.985 238.226)" fill="#e6e6e6"/>
      <path id="Path_332" data-name="Path 332" d="M140.557,179.5a22.568,22.568,0,0,0,4.068-4.845c.3-.474-.453-.909-.748-.437a21.741,21.741,0,0,1-3.933,4.669c-.416.373.2.983.612.612Z" transform="translate(113.696 230.07)" fill="#e6e6e6"/>
      <path id="Path_333" data-name="Path 333" d="M153.041,186a23.9,23.9,0,0,0,3.619-5.279c.25-.5-.5-.936-.748-.437a23.059,23.059,0,0,1-3.484,5.1c-.373.413.238,1.027.612.612Z" transform="translate(104.32 225.533)" fill="#e6e6e6"/>
      <g id="Group_438" data-name="Group 438" transform="translate(249.154 389.775)">
        <ellipse id="Ellipse_130" data-name="Ellipse 130" cx="5.759" cy="5.638" rx="5.759" ry="5.638" fill="#f9b406"/>
        <path id="Path_334" data-name="Path 334" d="M142.419,129.784l-2.657-6.533a.327.327,0,0,0-.625,0,28.878,28.878,0,0,0-1.722,7.095c-.047.414.6.41.648,0a27.7,27.7,0,0,1,.472-2.827,6.814,6.814,0,0,0,2.17-.239l1.089,2.677C141.949,130.337,142.576,130.17,142.419,129.784Zm-3.737-2.907q.327-1.34.784-2.645l.993,2.442A6.259,6.259,0,0,1,138.682,126.877Z" transform="translate(-133.663 -121.471)" fill="#fff"/>
      </g>
    </g>
    <g id="Group_429" data-name="Group 429" transform="translate(-2 -17.617)">
      <path id="Path_297" data-name="Path 297" d="M297.253,343.12h-84.99a1.257,1.257,0,0,1-1.256-1.256V265.953a1.257,1.257,0,0,1,1.256-1.256h84.99a1.257,1.257,0,0,1,1.256,1.256v75.911A1.257,1.257,0,0,1,297.253,343.12Z" transform="translate(-71.465 106.376)" fill="#f0f0f0"/>
      <path id="Path_298" data-name="Path 298" d="M310.544,341.955H239.655A1.257,1.257,0,0,1,238.4,340.7V297.046a1.257,1.257,0,0,1,1.256-1.256h70.889a1.257,1.257,0,0,1,1.255,1.256V340.7A1.257,1.257,0,0,1,310.544,341.955Z" transform="translate(-91.71 83.396)" fill="#fff"/>
      <path id="Path_299" data-name="Path 299" d="M294.222,525.123H240.91a2.511,2.511,0,0,1,0-5.022h53.312a2.511,2.511,0,1,1,0,5.022Z" transform="translate(-91.71 -82.387)" fill="#fff"/>
      <path id="Path_300" data-name="Path 300" d="M277.031,492.179H240.91a2.511,2.511,0,1,1,0-5.022h36.121a2.511,2.511,0,1,1,0,5.022Z" transform="translate(-91.71 -58.04)" fill="#fff"/>
      <path id="Path_301" data-name="Path 301" d="M339.722,380.976l.259-.081a16.7,16.7,0,0,0,11.568-16.529,16.467,16.467,0,0,0-1.016-5.113,16.67,16.67,0,1,0-20.987,21.554c.087.031.176.06.263.087h4.781Z" transform="translate(-150.704 44.553)" fill="#222"/>
      <path id="Path_302" data-name="Path 302" d="M180.919,300.293l-.524,3.369-.013.087h-5.124l.4-2.6.274-1.761Z" transform="translate(-1.553 121.699)" fill="#2f2e41"/>
      <path id="Path_303" data-name="Path 303" d="M219.411,308.94l.014-.081.3-1.652-4.984-.9-.462,2.554Z" transform="translate(-30.393 116.589)" fill="#2f2e41"/>
      <circle id="Ellipse_125" data-name="Ellipse 125" cx="5.697" cy="5.697" r="5.697" transform="translate(179.658 399.798)" fill="#fff"/>
      <circle id="Ellipse_126" data-name="Ellipse 126" cx="1.899" cy="1.899" r="1.899" transform="translate(185.797 401.554)" fill="#3f3d56"/>
      <path id="Path_304" data-name="Path 304" d="M331.695,309.648c-.251-6.171,5.068-11.4,11.879-11.674s12.536,4.5,12.786,10.672-4.484,7.573-11.3,7.849S331.945,315.818,331.695,309.648Z" transform="translate(-160.656 81.791)" fill="#f9b406"/>
      <ellipse id="Ellipse_127" data-name="Ellipse 127" cx="8.334" cy="2.616" rx="8.334" ry="2.616" transform="matrix(0.975, -0.223, 0.223, 0.975, 190.87, 405.847)" fill="#2f2e41"/>
      <ellipse id="Ellipse_128" data-name="Ellipse 128" cx="8.334" cy="2.616" rx="8.334" ry="2.616" transform="matrix(0.975, -0.223, 0.223, 0.975, 158.151, 411.288)" fill="#2f2e41"/>
      <path id="Path_305" data-name="Path 305" d="M364.392,431.811a3.8,3.8,0,0,0,7.473,1.36v-.007c.374-2.064-1.222-2.794-3.286-3.168S364.765,429.747,364.392,431.811Z" transform="translate(-184.782 -15.671)" fill="#fff"/>
      <path id="Path_306" data-name="Path 306" d="M500.858,520.213a1.638,1.638,0,0,0-2.322,2.311l.006.006,2.317,2.317,2.317-2.317a1.638,1.638,0,0,0-2.317-2.317Z" transform="translate(-283.619 -82.114)" fill="#f9b406"/>
    </g>
  </g>
</svg>
