<svg xmlns="http://www.w3.org/2000/svg" width="190.811" height="263.689" viewBox="0 0 190.811 263.689">
  <g id="undraw_online_popularity_re_nm0s" transform="translate(0 0)">
    <path id="Path_295" data-name="Path 295" d="M343.02,420.689H181.151a14.487,14.487,0,0,1-14.471-14.471V171.471A14.487,14.487,0,0,1,181.151,157H343.02a14.487,14.487,0,0,1,14.471,14.471V406.218A14.487,14.487,0,0,1,343.02,420.689Z" transform="translate(-166.68 -157)" fill="#f96d06"/>
    <path id="Path_296" data-name="Path 296" d="M355.191,422.74H192.752a4.466,4.466,0,0,1-4.461-4.461v-236.3a4.466,4.466,0,0,1,4.461-4.461H355.191a4.466,4.466,0,0,1,4.461,4.461v236.3A4.466,4.466,0,0,1,355.191,422.74Z" transform="translate(-178.566 -168.284)" fill="#fff"/>
    <circle id="Ellipse_124" data-name="Ellipse 124" cx="1.231" cy="1.231" r="1.231" transform="translate(93.559 3.201)" fill="#fff"/>
    <path id="Path_297" data-name="Path 297" d="M359.757,399.954H213.174a2.168,2.168,0,0,1-2.165-2.165V266.863a2.168,2.168,0,0,1,2.165-2.165H359.757a2.168,2.168,0,0,1,2.165,2.165V397.789a2.168,2.168,0,0,1-2.165,2.165Z" transform="translate(-191.06 -216.232)" fill="#f0f0f0"/>
    <path id="Path_298" data-name="Path 298" d="M362.829,375.412H240.565a2.168,2.168,0,0,1-2.165-2.165V297.956a2.168,2.168,0,0,1,2.165-2.165H362.829a2.168,2.168,0,0,1,2.165,2.165v75.291a2.168,2.168,0,0,1-2.165,2.165Z" transform="translate(-206.125 -233.333)" fill="#fff"/>
    <path id="Path_299" data-name="Path 299" d="M334.678,528.762H242.73a4.331,4.331,0,0,1,0-8.662h91.948a4.331,4.331,0,1,1,0,8.662Z" transform="translate(-206.125 -356.7)" fill="#fff"/>
    <path id="Path_300" data-name="Path 300" d="M305.028,495.819h-62.3a4.331,4.331,0,0,1,0-8.662h62.3a4.331,4.331,0,0,1,0,8.662Z" transform="translate(-206.125 -338.582)" fill="#fff"/>
    <path id="Path_301" data-name="Path 301" d="M355.305,404.623l.446-.14A28.793,28.793,0,0,0,375.7,375.976a28.407,28.407,0,0,0-1.752-8.818,28.752,28.752,0,1,0-36.2,37.176c.15.053.3.1.453.15h8.245Z" transform="translate(-250.025 -262.238)" fill="#222"/>
    <path id="Path_302" data-name="Path 302" d="M185.022,300.947l-.9,5.81-.023.15h-8.838l.7-4.478.473-3.038Z" transform="translate(-96.389 -164.661)" fill="#2f2e41"/>
    <path id="Path_303" data-name="Path 303" d="M223.13,310.849l.023-.14.517-2.849-8.6-1.556-.8,4.4Z" transform="translate(-117.85 -168.464)" fill="#2f2e41"/>
    <circle id="Ellipse_125" data-name="Ellipse 125" cx="9.825" cy="9.825" r="9.825" transform="translate(89.135 98.007)" fill="#fff"/>
    <circle id="Ellipse_126" data-name="Ellipse 126" cx="3.275" cy="3.275" r="3.275" transform="translate(99.723 101.035)" fill="#3f3d56"/>
    <path id="Path_304" data-name="Path 304" d="M331.7,318.117c-.432-10.643,8.74-19.657,20.488-20.135s21.621,7.764,22.053,18.407-7.734,13.061-19.481,13.538S332.133,328.759,331.7,318.117Z" transform="translate(-257.431 -234.527)" fill="#f9b406"/>
    <ellipse id="Ellipse_127" data-name="Ellipse 127" cx="14.374" cy="4.512" rx="14.374" ry="4.512" transform="matrix(0.975, -0.223, 0.223, 0.975, 108.473, 108.44)" fill="#2f2e41"/>
    <ellipse id="Ellipse_128" data-name="Ellipse 128" cx="14.374" cy="4.512" rx="14.374" ry="4.512" transform="matrix(0.975, -0.223, 0.223, 0.975, 52.042, 117.824)" fill="#2f2e41"/>
    <path id="Path_305" data-name="Path 305" d="M364.437,433.246a6.55,6.55,0,1,0,12.889,2.345l0-.011c.644-3.56-2.108-4.819-5.668-5.464S365.081,429.687,364.437,433.246Z" transform="translate(-275.385 -307.053)" fill="#fff"/>
    <path id="Path_306" data-name="Path 306" d="M502.886,520.563a2.825,2.825,0,0,0-4.005,3.986l.01.01,4,4,4-4a2.825,2.825,0,0,0-4-4Z" transform="translate(-348.934 -356.497)" fill="#f9b406"/>
  </g>
</svg>
