<svg xmlns="http://www.w3.org/2000/svg" width="63.24" height="34.999" viewBox="0 0 63.24 34.999">
  <g id="Group_419" data-name="Group 419" transform="translate(-2923.5 -10614.241)">
    <path id="Path_175" data-name="Path 175" d="M103.1,110.907a3.264,3.264,0,0,0,2.23-3.08V93.954l-17.47,4.534a11.223,11.223,0,0,1-5.687,0L64.7,93.954v13.873a3.264,3.264,0,0,0,2.23,3.08A54.532,54.532,0,0,0,103.1,110.907Z" transform="translate(2870.104 10535.247)" fill="#222"/>
    <path id="Subtraction_6" data-name="Subtraction 6" d="M31.62,17.7a9.162,9.162,0,0,1-2.3-.294L7.408,11.721l-1.545.132v3.314H4.248V11.11a.644.644,0,0,1,.03-.17l.008-.029L.918,10.037a1.226,1.226,0,0,1,0-2.373L29.32.294a9.158,9.158,0,0,1,4.6,0l28.4,7.371a1.226,1.226,0,0,1,0,2.373l-28.4,7.37A9.166,9.166,0,0,1,31.62,17.7Z" transform="translate(2923.5 10614.241)" fill="#222"/>
    <path id="Path_308" data-name="Path 308" d="M16.757,49.322a2.079,2.079,0,0,0-1.274-1.915c-.056-.217-1.865-.342-1.616,0A2.057,2.057,0,0,0,13,50.55l-1.109,6a1.09,1.09,0,0,0,1.072,1.288h3.434a1.09,1.09,0,0,0,1.072-1.288l-1.109-6A2.066,2.066,0,0,0,16.757,49.322Z" transform="translate(2913.881 10582.006)" fill="#f9b406"/>
  </g>
</svg>
