<svg xmlns="http://www.w3.org/2000/svg" width="36" height="36" viewBox="0 0 36 36">
  <g id="Group_299" data-name="Group 299" transform="translate(-200 -199)">
    <path id="Path_201" data-name="Path 201" d="M4.643,56.786h9a.643.643,0,0,0,.643-.643A5.143,5.143,0,0,0,4,56.143.643.643,0,0,0,4.643,56.786Z" transform="translate(196 178.214)" fill="#06b8f9"/>
    <ellipse id="Ellipse_69" data-name="Ellipse 69" cx="3.214" cy="3.214" rx="3.214" ry="3.214" transform="translate(201.929 222.143)" fill="#06b8f9"/>
    <path id="Path_202" data-name="Path 202" d="M24,56.143a.643.643,0,0,0,.643.643h9a.643.643,0,0,0,.643-.643,5.143,5.143,0,0,0-10.286,0Z" transform="translate(188.857 178.214)" fill="#06b8f9"/>
    <ellipse id="Ellipse_70" data-name="Ellipse 70" cx="3.214" cy="3.214" rx="3.214" ry="3.214" transform="translate(214.786 222.143)" fill="#06b8f9"/>
    <path id="Path_203" data-name="Path 203" d="M49.143,51A5.143,5.143,0,0,0,44,56.143a.643.643,0,0,0,.643.643h9a.643.643,0,0,0,.643-.643A5.143,5.143,0,0,0,49.143,51Z" transform="translate(181.714 178.214)" fill="#06b8f9"/>
    <ellipse id="Ellipse_71" data-name="Ellipse 71" cx="3.214" cy="3.214" rx="3.214" ry="3.214" transform="translate(227.643 222.143)" fill="#06b8f9"/>
    <ellipse id="Ellipse_72" data-name="Ellipse 72" cx="3.214" cy="3.214" rx="3.214" ry="3.214" transform="translate(202.571 199)" fill="#06b8f9"/>
    <path id="Path_204" data-name="Path 204" d="M4.643,22.714H6.571v6.429a.643.643,0,0,0,.643.643H9.143V23.357a.643.643,0,1,1,1.286,0v6.429h1.929A.643.643,0,0,0,13,29.143V18.857h4.5a.643.643,0,0,0,.643-.643V15.643A.643.643,0,0,0,17.5,15H6.571A2.571,2.571,0,0,0,4,17.571v4.5A.643.643,0,0,0,4.643,22.714Z" transform="translate(196 191.071)" fill="#06b8f9"/>
    <path id="Path_205" data-name="Path 205" d="M45.071,4H20.643A.643.643,0,0,0,20,4.643v5.786h3.214A1.286,1.286,0,0,1,24.5,11.714v2.571a1.286,1.286,0,0,1-1.286,1.286H20v5.786a.643.643,0,0,0,.643.643H45.071a.643.643,0,0,0,.643-.643V4.643A.643.643,0,0,0,45.071,4ZM41.214,18.143H34.786a.643.643,0,0,1,0-1.286h6.429a.643.643,0,1,1,0,1.286Zm0-4.5H25.786a.643.643,0,1,1,0-1.286H41.214a.643.643,0,1,1,0,1.286Zm0-4.5H24.5a.643.643,0,1,1,0-1.286H41.214a.643.643,0,1,1,0,1.286Z" transform="translate(190.286 195)" fill="#06b8f9"/>
  </g>
</svg>
